<svg width="24" height="25" viewBox="0 0 24 25" fill="none" xmlns="http://www.w3.org/2000/svg">
<path d="M2.90156 9.1125L11.3016 17.5375C11.4016 17.6375 11.5099 17.7082 11.6266 17.7495C11.7432 17.7915 11.8682 17.8125 12.0016 17.8125C12.1349 17.8125 12.2599 17.7915 12.3766 17.7495C12.4932 17.7082 12.6016 17.6375 12.7016 17.5375L21.1266 9.1125C21.3599 8.87917 21.4766 8.5875 21.4766 8.2375C21.4766 7.8875 21.3516 7.5875 21.1016 7.3375C20.8516 7.0875 20.5599 6.9625 20.2266 6.9625C19.8932 6.9625 19.6016 7.0875 19.3516 7.3375L12.0016 14.6875L4.65156 7.3375C4.41823 7.10417 4.1309 6.9875 3.78956 6.9875C3.44756 6.9875 3.15156 7.1125 2.90156 7.3625C2.65156 7.6125 2.52656 7.90417 2.52656 8.2375C2.52656 8.57083 2.65156 8.8625 2.90156 9.1125Z" fill="white"/>
</svg>
