<svg width="100" height="100" viewBox="0 0 100 100" fill="none" xmlns="http://www.w3.org/2000/svg">
<path d="M95.2929 44.1849H90.0739L94.1859 40.0747C95.7676 38.4939 95.7676 36.1224 94.1859 34.5416L60.8139 1.18564C59.2322 -0.395213 56.8598 -0.395213 55.2782 1.18564L1.18622 55.2508C-0.395406 56.8316 -0.395406 59.2029 1.18622 60.7839L14.7883 74.3794V95.2465C14.7883 97.4598 16.528 99.0406 18.5841 99.0406H95.1349C97.3492 99.0406 98.9308 97.3016 98.9308 95.2465V48.1369C99.089 45.9237 97.349 44.1849 95.2929 44.1849ZM91.3388 58.8869H22.5382V51.931H91.3388V58.8869ZM79.1604 44.1849H44.0484L68.4053 19.8398L85.9614 37.3873L79.1604 44.1849ZM58.1247 9.56424L63.028 14.4649L33.1353 44.3431H23.329L58.1247 9.56424ZM14.7883 52.8796V62.681L14.3138 63.1551L9.41098 58.2545L14.7883 52.8796ZM22.5382 91.4524V66.6331H91.3388V91.4524H22.5382Z" fill="#F46C20"/>
<path d="M85.3293 79.7522C85.3293 82.4396 83.115 84.6529 80.4265 84.6529C77.7377 84.6529 75.5234 82.4396 75.5234 79.7522C75.5234 77.0649 77.7377 74.8516 80.4265 74.8516C83.115 75.0098 85.3293 77.0649 85.3293 79.7522Z" fill="#F46C20"/>
</svg>
