<svg width="18" height="18" viewBox="0 0 18 18" fill="none" xmlns="http://www.w3.org/2000/svg">
<path d="M12.975 13.1375C12.825 12.9875 12.753 12.8062 12.759 12.5937C12.7655 12.3812 12.8438 12.2 12.9937 12.05L15.1125 9.93125H1.75C1.5375 9.93125 1.35925 9.85925 1.21525 9.71525C1.07175 9.57175 1 9.39365 1 9.18115C1 8.96865 1.07175 8.7905 1.21525 8.6465C1.35925 8.503 1.5375 8.43125 1.75 8.43125H15.1125L12.975 6.29375C12.825 6.14375 12.75 5.9655 12.75 5.759C12.75 5.553 12.825 5.375 12.975 5.225C13.125 5.075 13.3032 5 13.5097 5C13.7157 5 13.8938 5.075 14.0438 5.225L17.475 8.65625C17.55 8.73125 17.6033 8.8125 17.6348 8.9C17.6658 8.9875 17.6813 9.08125 17.6813 9.18125C17.6813 9.28125 17.6658 9.375 17.6348 9.4625C17.6033 9.55 17.55 9.63125 17.475 9.70625L14.025 13.1562C13.8875 13.2937 13.7157 13.3625 13.5097 13.3625C13.3032 13.3625 13.125 13.2875 12.975 13.1375Z" fill="white"/>
</svg>
