<svg width="88" height="88" viewBox="0 0 88 88" fill="none" xmlns="http://www.w3.org/2000/svg">
<g clip-path="url(#clip0_1_20083)">
<path d="M87.3904 40.1396L77.2953 17.6417C76.1604 15.1123 73.7356 13.541 70.9667 13.541C68.0257 13.541 65.467 15.3214 64.4484 18.0769L56.1333 40.5751C55.3463 42.7042 55.6513 45.0874 56.9486 46.95C58.2462 48.8126 60.3758 49.9247 62.6459 49.9247H69.9243V56.9489H65.1525C64.0879 56.9489 63.2254 57.8115 63.2254 58.876V74.5601C63.2254 79.2795 67.0649 83.1194 71.7846 83.1194H71.9184C76.6378 83.1194 80.4777 79.2798 80.4777 74.5601V58.876C80.4777 57.8115 79.6151 56.9489 78.5505 56.9489H73.7788V49.9247H81.0558C83.4202 49.9247 85.5994 48.7396 86.8844 46.7547C88.1689 44.7698 88.358 42.2969 87.3904 40.1396ZM76.6232 74.5599C76.6232 77.1543 74.5126 79.2649 71.9182 79.2649H71.7843C69.1899 79.2649 67.0793 77.1543 67.0793 74.5599V60.8029H76.6232V74.5599ZM83.6487 44.6601C83.0682 45.5563 82.1232 46.0702 81.0555 46.0702H62.6459C61.621 46.0702 60.697 45.5879 60.1114 44.7469C59.5258 43.9062 59.3935 42.8722 59.7488 41.911L68.064 19.4131C68.6138 17.9251 69.924 17.395 70.967 17.395C72.2152 17.395 73.2664 18.0767 73.779 19.2193L83.8738 41.7175C84.3108 42.6913 84.2286 43.7641 83.6487 44.6601Z" fill="white"/>
<path d="M59.0778 60.8034C60.1423 60.8034 61.0049 59.9409 61.0049 58.8763C61.0049 57.8118 60.1423 56.9492 59.0778 56.9492H29.8568C28.7923 56.9492 27.9297 57.8118 27.9297 58.8763V79.3521C27.9297 80.4166 28.7923 81.2792 29.8568 81.2792H59.0778C60.1423 81.2792 61.0049 80.4166 61.0049 79.3521C61.0049 78.2875 60.1423 77.4249 59.0778 77.4249H31.7839V60.8034H59.0778Z" fill="white"/>
<path d="M59.077 51.3898H49.0144V34.7683H56.3572C57.4217 34.7683 58.2843 33.9057 58.2843 32.8412C58.2843 31.7766 57.4217 30.9141 56.3572 30.9141H47.0873C46.0227 30.9141 45.1602 31.7766 45.1602 32.8412V53.3169C45.1602 54.3814 46.0227 55.244 47.0873 55.244H59.077C60.1415 55.244 61.0041 54.3814 61.0041 53.3169C61.0041 52.2524 60.1415 51.3898 59.077 51.3898Z" fill="white"/>
<path d="M29.8568 29.2105H56.6997C57.7642 29.2105 58.6268 28.348 58.6268 27.2834C58.6268 26.2189 57.7642 25.3563 56.6997 25.3563H31.7839V8.73509H80.9318V20.5943C80.9318 21.6588 81.7943 22.5214 82.8589 22.5214C83.9234 22.5214 84.786 21.6588 84.786 20.5943V6.80797C84.786 5.74344 83.9234 4.88086 82.8589 4.88086H29.8568C28.7923 4.88086 27.9297 5.74344 27.9297 6.80797V27.2837C27.9297 28.348 28.7925 29.2105 29.8568 29.2105Z" fill="white"/>
<path d="M43.3077 53.3169V32.8412C43.3077 31.7766 42.4451 30.9141 41.3805 30.9141H1.92711C0.862576 30.9141 0 31.7766 0 32.8412V53.3169C0 54.3814 0.862576 55.244 1.92711 55.244H41.3805C42.4448 55.244 43.3077 54.3814 43.3077 53.3169ZM39.4534 51.3898H3.85423V34.7683H39.4534V51.3898Z" fill="white"/>
</g>
<defs>
<clipPath id="clip0_1_20083">
<rect width="88" height="88" fill="white"/>
</clipPath>
</defs>
</svg>
