<svg width="307" height="50" viewBox="0 0 307 50" fill="none" xmlns="http://www.w3.org/2000/svg">
<g clip-path="url(#clip0_1_20036)">
<path d="M51.2851 0.782578L38.0156 43.1974V49.7324H45.3485L58.5935 7.31725V0.782185L51.2851 0.782578Z" fill="#F14F1B"/>
<path d="M286.281 16.6827C286.281 20.5581 283.14 23.6996 279.264 23.6996H264.542V13.2334V9.6657H279.264C283.14 9.6657 286.281 12.8075 286.281 16.6827ZM292.785 44.3234L286.438 31.595C286.498 31.568 287.083 31.2785 287.143 31.251C292.114 28.9589 295.57 23.9407 295.57 18.1072V15.2581C295.57 7.26315 289.089 0.782185 281.094 0.782185H255.254V49.7324H264.542V32.5832H276.946L285.456 49.7324H292.785V44.3234Z" fill="white"/>
<path d="M97.7318 0.709919V33.6748L78.2533 0.709919H67.25V49.6602H76.5383V16.7135L96.0078 49.6602H107.02V0.709919H97.7318Z" fill="white"/>
<path d="M34.7911 10.0333V0.745033H0.46875V49.6953H9.75697V29.7302H34.4035V20.442H9.75697V10.0333H34.7911Z" fill="white"/>
<path d="M152.923 9.99831V0.709919H115.785V49.6602H152.91V40.3719H125.073V29.6953H149.72V20.4069H125.073V9.99831H152.923Z" fill="white"/>
<path d="M246.324 9.99831V0.709919H209.188V49.6602H246.311V40.3719H218.475V29.6953H243.122V20.4069H218.475V9.99831H246.324Z" fill="white"/>
<path d="M187.038 40.7894H171.236V28.917H187.038C190.317 28.917 192.975 31.5744 192.975 34.853C192.975 38.1315 190.317 40.7894 187.038 40.7894ZM171.209 9.75536H183.975C186.799 9.75536 189.088 12.0446 189.088 14.8681C189.088 17.6923 186.776 19.9011 183.952 19.9011H171.185L171.209 9.75536ZM193.459 23.1392V23.0001C195.959 21.4032 198.389 18.3477 198.389 14.2506C198.389 5.01511 192.14 0.709293 180.126 0.709293H161.855V49.8047H182.209C196.653 49.8047 201.931 43.6248 201.931 34.6665C201.931 27.9304 196.792 24.3197 193.459 23.1392Z" fill="white"/>
<path d="M301.988 5.04704H302.711C303.077 5.04704 303.323 4.81834 303.323 4.48007C303.323 4.12244 303.077 3.90342 302.711 3.90342H301.988V5.04704ZM301.165 7.0401V3.23634H302.82C303.597 3.23634 304.156 3.72899 304.156 4.45192C304.156 5.01033 303.836 5.44887 303.332 5.56784L304.284 7.0401H303.351L302.537 5.69565H301.988V7.0401H301.165ZM302.572 8.65087C304.603 8.68696 306.12 7.16898 306.085 5.13808C306.085 4.10003 305.759 3.25881 305.094 2.60626C304.439 1.95151 303.6 1.6249 302.572 1.6249C301.545 1.6249 300.705 1.95151 300.04 2.60626C299.387 3.25881 299.059 4.10003 299.059 5.13808C299.024 7.16898 300.542 8.68696 302.572 8.65087ZM298.277 5.14996C298.277 3.48182 299.048 2.12768 300.355 1.39175C301.008 1.0291 301.744 0.842796 302.572 0.842796C304.218 0.842796 305.584 1.61302 306.319 2.92054C306.681 3.57461 306.867 4.3213 306.867 5.14996C306.867 6.79575 306.097 8.14989 304.789 8.88402C304.137 9.24667 303.401 9.43359 302.572 9.43359C300.927 9.43359 299.561 8.66275 298.826 7.36779C298.464 6.71304 298.277 5.97868 298.277 5.14996Z" fill="white"/>
</g>
<defs>
<clipPath id="clip0_1_20036">
<rect width="306.4" height="49.0961" fill="white" transform="translate(0.46875 0.708984)"/>
</clipPath>
</defs>
</svg>
