<svg width="36" height="37" viewBox="0 0 36 37" fill="none" xmlns="http://www.w3.org/2000/svg">
<path d="M26.01 8.96344C25.654 8.96344 25.306 9.06901 25.01 9.26679C24.714 9.46458 24.4833 9.7457 24.347 10.0746C24.2108 10.4035 24.1751 10.7654 24.2446 11.1146C24.314 11.4638 24.4855 11.7845 24.7372 12.0362C24.9889 12.288 25.3097 12.4594 25.6588 12.5289C26.008 12.5983 26.3699 12.5627 26.6988 12.4264C27.0277 12.2902 27.3089 12.0595 27.5066 11.7635C27.7044 11.4675 27.81 11.1194 27.81 10.7634C27.81 10.286 27.6204 9.82821 27.2828 9.49065C26.9452 9.15308 26.4874 8.96344 26.01 8.96344ZM32.91 12.5934C32.8808 11.3489 32.6477 10.1175 32.22 8.94844C31.8386 7.94814 31.245 7.04236 30.48 6.29344C29.7372 5.52458 28.8293 4.9347 27.825 4.56844C26.659 4.12768 25.4263 3.88925 24.18 3.86344C22.59 3.77344 22.08 3.77344 18 3.77344C13.92 3.77344 13.41 3.77344 11.82 3.86344C10.5737 3.88925 9.34101 4.12768 8.175 4.56844C7.17251 4.93841 6.2654 5.52778 5.52 6.29344C4.75114 7.0362 4.16126 7.9441 3.795 8.94844C3.35424 10.1145 3.11581 11.3472 3.09 12.5934C3 14.1834 3 14.6934 3 18.7734C3 22.8534 3 23.3634 3.09 24.9534C3.11581 26.1997 3.35424 27.4324 3.795 28.5984C4.16126 29.6028 4.75114 30.5107 5.52 31.2534C6.2654 32.0191 7.17251 32.6085 8.175 32.9784C9.34101 33.4192 10.5737 33.6576 11.82 33.6834C13.41 33.7734 13.92 33.7734 18 33.7734C22.08 33.7734 22.59 33.7734 24.18 33.6834C25.4263 33.6576 26.659 33.4192 27.825 32.9784C28.8293 32.6122 29.7372 32.0223 30.48 31.2534C31.2484 30.5073 31.8425 29.6007 32.22 28.5984C32.6477 27.4293 32.8808 26.198 32.91 24.9534C32.91 23.3634 33 22.8534 33 18.7734C33 14.6934 33 14.1834 32.91 12.5934ZM30.21 24.7734C30.1991 25.7256 30.0266 26.669 29.7 27.5634C29.4605 28.2162 29.0758 28.8061 28.575 29.2884C28.0885 29.7842 27.4998 30.1681 26.85 30.4134C25.9556 30.7401 25.0122 30.9125 24.06 30.9234C22.56 30.9984 22.005 31.0134 18.06 31.0134C14.115 31.0134 13.56 31.0134 12.06 30.9234C11.0713 30.9419 10.0869 30.7897 9.15 30.4734C8.52867 30.2156 7.96703 29.8326 7.5 29.3484C7.00213 28.8666 6.62226 28.2762 6.39 27.6234C6.02378 26.7162 5.82067 25.7514 5.79 24.7734C5.79 23.2734 5.7 22.7184 5.7 18.7734C5.7 14.8284 5.7 14.2734 5.79 12.7734C5.79672 11.8 5.97443 10.8354 6.315 9.92344C6.57907 9.2903 6.9844 8.72592 7.5 8.27344C7.95572 7.75769 8.51893 7.34808 9.15 7.07344C10.0643 6.7435 11.028 6.57106 12 6.56344C13.5 6.56344 14.055 6.47344 18 6.47344C21.945 6.47344 22.5 6.47344 24 6.56344C24.9522 6.57436 25.8956 6.74681 26.79 7.07344C27.4716 7.32642 28.0834 7.73771 28.575 8.27344C29.0666 8.73421 29.4506 9.29754 29.7 9.92344C30.0334 10.8368 30.2059 11.8011 30.21 12.7734C30.285 14.2734 30.3 14.8284 30.3 18.7734C30.3 22.7184 30.285 23.2734 30.21 24.7734ZM18 11.0784C16.4787 11.0814 14.9924 11.5352 13.729 12.3826C12.4655 13.2299 11.4816 14.4327 10.9015 15.8391C10.3213 17.2454 10.1711 18.7921 10.4697 20.2838C10.7683 21.7755 11.5024 23.1452 12.5791 24.2199C13.6559 25.2946 15.027 26.026 16.5193 26.3217C18.0116 26.6174 19.558 26.4641 20.9632 25.8812C22.3684 25.2984 23.5693 24.3121 24.4142 23.047C25.2591 21.7819 25.71 20.2947 25.71 18.7734C25.712 17.7611 25.5138 16.7583 25.1269 15.8229C24.7399 14.8874 24.1718 14.0377 23.4553 13.3225C22.7388 12.6074 21.8879 12.041 20.9517 11.6558C20.0155 11.2707 19.0123 11.0745 18 11.0784ZM18 23.7684C17.0121 23.7684 16.0464 23.4755 15.2249 22.9266C14.4035 22.3778 13.7633 21.5977 13.3852 20.6849C13.0072 19.7722 12.9082 18.7679 13.101 17.799C13.2937 16.83 13.7694 15.94 14.468 15.2414C15.1666 14.5429 16.0566 14.0671 17.0255 13.8744C17.9945 13.6817 18.9988 13.7806 19.9115 14.1587C20.8242 14.5367 21.6043 15.1769 22.1532 15.9984C22.702 16.8198 22.995 17.7855 22.995 18.7734C22.995 19.4294 22.8658 20.0789 22.6148 20.6849C22.3638 21.291 21.9958 21.8416 21.532 22.3054C21.0682 22.7693 20.5175 23.1372 19.9115 23.3882C19.3055 23.6392 18.656 23.7684 18 23.7684Z" fill="#222223"/>
</svg>
