<svg width="36" height="37" viewBox="0 0 36 37" fill="none" xmlns="http://www.w3.org/2000/svg">
<path d="M24.75 32.2741C13.5844 32.2741 4.5 23.1897 4.5 12.0241C4.50422 10.1089 5.20379 8.26035 6.46864 6.8222C7.73349 5.38405 9.47755 4.45414 11.3766 4.20537C11.8607 4.15169 12.3493 4.25362 12.7715 4.49636C13.1938 4.73909 13.5278 5.11003 13.725 5.55537L16.5516 12.1507C16.6982 12.493 16.757 12.8666 16.7226 13.2374C16.6882 13.6082 16.5617 13.9646 16.3547 14.2741L14.0203 17.846C15.0774 19.9912 16.8191 21.7231 18.9703 22.7679L22.5 20.4194C22.8092 20.211 23.1665 20.0848 23.538 20.0528C23.9096 20.0208 24.2831 20.0841 24.6234 20.2366L31.2188 23.0491C31.6641 23.2464 32.035 23.5803 32.2778 24.0026C32.5205 24.4249 32.6224 24.9135 32.5688 25.3976C32.32 27.2966 31.3901 29.0406 29.9519 30.3055C28.5138 31.5703 26.6652 32.2699 24.75 32.2741ZM11.6578 6.44131C10.3007 6.61576 9.05373 7.27889 8.15034 8.30653C7.24694 9.33417 6.74909 10.6559 6.75 12.0241C6.75372 16.7969 8.65134 21.3731 12.0262 24.7479C15.401 28.1228 19.9772 30.0204 24.75 30.0241C26.1183 30.025 27.44 29.5272 28.4676 28.6238C29.4952 27.7204 30.1584 26.4734 30.3328 25.1163L23.7375 22.3038L20.2219 24.6522C19.8984 24.8661 19.5251 24.9927 19.1383 25.0198C18.7515 25.0469 18.3642 24.9736 18.0141 24.8069C15.3941 23.5396 13.2749 21.4303 11.9953 18.8163C11.8266 18.4674 11.7509 18.0807 11.7755 17.6939C11.8002 17.3071 11.9243 16.9332 12.1359 16.6085L14.4844 13.0366L11.6578 6.44131Z" fill="#222223"/>
</svg>
