<svg width="36" height="37" viewBox="0 0 36 37" fill="none" xmlns="http://www.w3.org/2000/svg">
<path d="M30.6207 5.88281C30.6006 5.88281 30.5805 5.8833 30.5604 5.88427C30.1967 5.90185 29.8398 5.98848 29.5088 6.13935L4.97089 15.6041L4.9574 15.6094C4.45727 15.809 4.00521 16.0578 3.64995 16.37C3.30386 16.6742 2.94861 17.1318 2.8847 17.7428C2.81547 18.4047 3.11667 18.9459 3.49894 19.3014C3.85415 19.6318 4.30529 19.8378 4.74893 19.9686L10.8702 21.9044C11.094 21.9778 11.3313 22.0007 11.5651 21.9715C11.8012 21.942 12.0276 21.8601 12.2278 21.7318L18.0591 18.0529L14.4923 21.2739C14.3274 21.4087 14.1917 21.5762 14.0942 21.7663L14.0942 21.7663C13.9818 21.9853 13.9231 22.2279 13.9231 22.4741C13.9231 22.7202 13.9818 22.9628 14.0942 23.1818C14.2048 23.3973 14.3643 23.5838 14.5599 23.7265L24.5381 31.0958C24.5808 31.1274 24.6255 31.1562 24.6719 31.182C25.4039 31.5903 26.3571 31.8726 27.279 31.4565C28.2044 31.0389 28.6324 30.1286 28.8139 29.2606C28.814 29.2598 28.8142 29.2589 28.8144 29.258L32.9945 9.55615C33.2129 8.65565 33.1642 7.75306 32.7098 7.02216C32.2335 6.25615 31.4345 5.88281 30.6207 5.88281Z" stroke="#222223" stroke-width="2.5" stroke-linecap="round" stroke-linejoin="round"/>
</svg>
